<svg width="35" height="31" viewBox="0 0 35 31" fill="none" xmlns="http://www.w3.org/2000/svg">
<rect x="1.9668" y="1.82483" width="31.381" height="28.0314" rx="5" stroke="#2ADF91" stroke-width="2"/>
<path d="M12.1426 17.3254L12.1426 22.6062C12.1426 23.1643 12.5951 23.6168 13.1533 23.6168L21.5521 23.6168C22.1103 23.6168 22.5628 23.1643 22.5628 22.6062L22.5628 17.3254C22.5628 16.7672 22.1103 16.3148 21.5521 16.3148L13.1533 16.3148C12.5951 16.3148 12.1426 16.7672 12.1426 17.3254ZM10.682 17.3254C10.682 15.9606 11.7884 14.8542 13.1533 14.8542L21.5521 14.8542C22.917 14.8542 24.0234 15.9606 24.0234 17.3254L24.0234 22.6062C24.0234 23.971 22.917 25.0774 21.5521 25.0774L13.1533 25.0774C11.7884 25.0774 10.682 23.971 10.682 22.6062L10.682 17.3254Z" fill="#2ADF91" stroke="#2ADF91" stroke-width="0.3"/>
<path d="M11.5723 19.4014H22.929V21.8562H11.5723V19.4014Z" fill="#2ADF91"/>
<path d="M17.2624 19.4819C16.469 19.489 15.9025 18.7158 16.1485 17.9615L17.0096 15.3209C17.3027 14.4219 18.4904 14.232 19.0493 14.9948L20.9655 17.6104C21.5244 18.3733 20.9853 19.4484 20.0397 19.4569L17.2624 19.4819Z" fill="#2ADF91"/>
<path fill-rule="evenodd" clip-rule="evenodd" d="M15.0442 17.6017L15.9053 14.9611C16.4916 13.163 18.8669 12.7833 19.9846 14.3089L21.9009 16.9245C23.0186 18.4502 21.9404 20.6005 20.0492 20.6175L17.2719 20.6424C15.6852 20.6567 14.5523 19.1103 15.0442 17.6017ZM16.1476 17.9615C15.9017 18.7158 16.4681 19.489 17.2615 19.4819L20.0388 19.4569C20.9844 19.4484 21.5235 18.3733 20.9646 17.6104L19.0484 14.9948C18.4895 14.232 17.3019 14.4219 17.0087 15.3209L16.1476 17.9615Z" fill="white"/>
<path fill-rule="evenodd" clip-rule="evenodd" d="M19.267 15.4056C20.4807 14.5164 20.7438 12.8116 19.8546 11.5978C18.9654 10.3841 17.2606 10.121 16.0469 11.0102C14.8332 11.8994 14.5701 13.6042 15.4593 14.8179L13.5868 16.1898C11.9399 13.9419 12.4272 10.7846 14.6751 9.13772C16.923 7.49088 20.0803 7.97813 21.7271 10.226C23.374 12.4739 22.8867 15.6312 20.6388 17.2781L19.267 15.4056Z" fill="#2ADF91"/>
</svg>
