<svg width="34" height="31" viewBox="0 0 34 31" fill="none" xmlns="http://www.w3.org/2000/svg">
<rect x="0.462891" y="0.704407" width="33.381" height="30.0314" rx="6" fill="#2ADF91"/>
<path d="M11.6387 17.205L11.6387 22.4857C11.6387 23.0439 12.0912 23.4964 12.6494 23.4964L21.0482 23.4964C21.6064 23.4964 22.0588 23.0439 22.0588 22.4857L22.0588 17.205C22.0588 16.6468 21.6064 16.1943 21.0482 16.1943L12.6493 16.1943C12.0912 16.1943 11.6387 16.6468 11.6387 17.205ZM10.1781 17.205C10.1781 15.8401 11.2845 14.7337 12.6493 14.7337L21.0482 14.7337C22.4131 14.7337 23.5195 15.8401 23.5195 17.205L23.5195 22.4857C23.5195 23.8506 22.4131 24.957 21.0482 24.957L12.6494 24.957C11.2845 24.957 10.1781 23.8506 10.1781 22.4857L10.1781 17.205Z" fill="white" stroke="white" stroke-width="0.3"/>
<path d="M11.0684 19.2809H22.4251V21.7358H11.0684V19.2809Z" fill="white"/>
<path d="M16.7585 19.3614C15.9651 19.3686 15.3986 18.5954 15.6446 17.8411L16.5057 15.2005C16.7988 14.3014 17.9865 14.1116 18.5453 14.8744L20.4616 17.49C21.0204 18.2528 20.4814 19.328 19.5358 19.3365L16.7585 19.3614Z" fill="white"/>
<path fill-rule="evenodd" clip-rule="evenodd" d="M14.5403 17.4812L15.4014 14.8407C15.9877 13.0426 18.363 12.6628 19.4807 14.1885L21.397 16.8041C22.5147 18.3298 21.4365 20.4801 19.5453 20.4971L16.768 20.522C15.1813 20.5363 14.0484 18.9898 14.5403 17.4812ZM15.6437 17.8411C15.3978 18.5954 15.9642 19.3686 16.7576 19.3614L19.5349 19.3365C20.4805 19.328 21.0196 18.2528 20.4607 17.49L18.5445 14.8744C17.9856 14.1116 16.798 14.3014 16.5048 15.2005L15.6437 17.8411Z" fill="#2ADF91"/>
<path fill-rule="evenodd" clip-rule="evenodd" d="M18.7631 15.2852C19.9768 14.3959 20.2399 12.6912 19.3507 11.4774C18.4615 10.2637 16.7567 10.0006 15.543 10.8898C14.3292 11.779 14.0662 13.4838 14.9554 14.6975L13.0829 16.0693C11.436 13.8214 11.9233 10.6641 14.1712 9.0173C16.4191 7.37046 19.5764 7.85771 21.2232 10.1056C22.8701 12.3535 22.3828 15.5108 20.1349 17.1576L18.7631 15.2852Z" fill="white"/>
</svg>
